<mxfile host="app.diagrams.net" modified="2024-03-06T21:11:49.243Z" agent="Mozilla/5.0 (Windows NT 10.0; Win64; x64; rv:123.0) Gecko/20100101 Firefox/123.0" etag="z72Z3sQx1f8RYe6kaZXm" version="24.0.2" type="device">
  <diagram name="Page-1" id="UowVe_mnWBge2R0yKsrR">
    <mxGraphModel dx="1366" dy="825" grid="1" gridSize="10" guides="1" tooltips="1" connect="1" arrows="1" fold="1" page="1" pageScale="1" pageWidth="827" pageHeight="1169" math="0" shadow="0">
      <root>
        <mxCell id="0" />
        <mxCell id="1" parent="0" />
        <mxCell id="yUhdDb82NWv-7DDXSfU8-9" style="edgeStyle=orthogonalEdgeStyle;rounded=0;orthogonalLoop=1;jettySize=auto;html=1;exitX=0.5;exitY=1;exitDx=0;exitDy=0;entryX=0.5;entryY=0;entryDx=0;entryDy=0;endArrow=none;endFill=0;" edge="1" parent="1">
          <mxGeometry relative="1" as="geometry">
            <mxPoint x="292" y="120" as="sourcePoint" />
            <mxPoint x="291" y="180" as="targetPoint" />
            <Array as="points">
              <mxPoint x="292" y="140" />
              <mxPoint x="291" y="140" />
            </Array>
          </mxGeometry>
        </mxCell>
        <mxCell id="yUhdDb82NWv-7DDXSfU8-10" value="MEN1" style="edgeLabel;html=1;align=center;verticalAlign=middle;resizable=0;points=[];" vertex="1" connectable="0" parent="yUhdDb82NWv-7DDXSfU8-9">
          <mxGeometry x="-0.1694" y="-1" relative="1" as="geometry">
            <mxPoint as="offset" />
          </mxGeometry>
        </mxCell>
        <mxCell id="yUhdDb82NWv-7DDXSfU8-1" value="&lt;div&gt;Látogató főmenü&lt;/div&gt;" style="rounded=0;whiteSpace=wrap;html=1;" vertex="1" parent="1">
          <mxGeometry x="225" y="60" width="120" height="60" as="geometry" />
        </mxCell>
        <mxCell id="yUhdDb82NWv-7DDXSfU8-2" value="Bejelentkezés" style="rounded=0;whiteSpace=wrap;html=1;" vertex="1" parent="1">
          <mxGeometry x="70" y="180" width="120" height="60" as="geometry" />
        </mxCell>
        <mxCell id="yUhdDb82NWv-7DDXSfU8-3" value="Regisztráció" style="rounded=0;whiteSpace=wrap;html=1;" vertex="1" parent="1">
          <mxGeometry x="224" y="180" width="120" height="60" as="geometry" />
        </mxCell>
        <mxCell id="yUhdDb82NWv-7DDXSfU8-5" value="Videók böngészése" style="rounded=0;whiteSpace=wrap;html=1;" vertex="1" parent="1">
          <mxGeometry x="380" y="180" width="120" height="60" as="geometry" />
        </mxCell>
        <mxCell id="yUhdDb82NWv-7DDXSfU8-7" value="Videók megtekintése" style="rounded=1;whiteSpace=wrap;html=1;" vertex="1" parent="1">
          <mxGeometry x="380" y="300" width="120" height="60" as="geometry" />
        </mxCell>
        <mxCell id="yUhdDb82NWv-7DDXSfU8-11" value="" style="endArrow=none;html=1;rounded=0;" edge="1" parent="1">
          <mxGeometry width="50" height="50" relative="1" as="geometry">
            <mxPoint x="121" y="160" as="sourcePoint" />
            <mxPoint x="291" y="160" as="targetPoint" />
          </mxGeometry>
        </mxCell>
        <mxCell id="yUhdDb82NWv-7DDXSfU8-12" value="" style="endArrow=none;html=1;rounded=0;exitX=0.431;exitY=0.028;exitDx=0;exitDy=0;exitPerimeter=0;" edge="1" parent="1" source="yUhdDb82NWv-7DDXSfU8-2">
          <mxGeometry width="50" height="50" relative="1" as="geometry">
            <mxPoint x="261" y="250" as="sourcePoint" />
            <mxPoint x="121" y="160" as="targetPoint" />
          </mxGeometry>
        </mxCell>
        <mxCell id="yUhdDb82NWv-7DDXSfU8-13" value="" style="endArrow=none;html=1;rounded=0;" edge="1" parent="1">
          <mxGeometry width="50" height="50" relative="1" as="geometry">
            <mxPoint x="441" y="160" as="sourcePoint" />
            <mxPoint x="291" y="160" as="targetPoint" />
          </mxGeometry>
        </mxCell>
        <mxCell id="yUhdDb82NWv-7DDXSfU8-14" value="" style="endArrow=none;html=1;rounded=0;exitX=0.525;exitY=0;exitDx=0;exitDy=0;exitPerimeter=0;" edge="1" parent="1" source="yUhdDb82NWv-7DDXSfU8-5">
          <mxGeometry width="50" height="50" relative="1" as="geometry">
            <mxPoint x="261" y="250" as="sourcePoint" />
            <mxPoint x="441" y="160" as="targetPoint" />
          </mxGeometry>
        </mxCell>
        <mxCell id="yUhdDb82NWv-7DDXSfU8-15" value="" style="endArrow=none;html=1;rounded=0;entryX=0.542;entryY=0.994;entryDx=0;entryDy=0;entryPerimeter=0;exitX=0.539;exitY=0.022;exitDx=0;exitDy=0;exitPerimeter=0;" edge="1" parent="1" source="yUhdDb82NWv-7DDXSfU8-7" target="yUhdDb82NWv-7DDXSfU8-5">
          <mxGeometry width="50" height="50" relative="1" as="geometry">
            <mxPoint x="261" y="250" as="sourcePoint" />
            <mxPoint x="311" y="200" as="targetPoint" />
          </mxGeometry>
        </mxCell>
        <mxCell id="yUhdDb82NWv-7DDXSfU8-19" value="DIAG1" style="edgeLabel;html=1;align=center;verticalAlign=middle;resizable=0;points=[];" vertex="1" connectable="0" parent="yUhdDb82NWv-7DDXSfU8-15">
          <mxGeometry x="0.0481" relative="1" as="geometry">
            <mxPoint x="-5" y="101" as="offset" />
          </mxGeometry>
        </mxCell>
        <mxCell id="yUhdDb82NWv-7DDXSfU8-40" value="MEN1.1" style="edgeLabel;html=1;align=center;verticalAlign=middle;resizable=0;points=[];" vertex="1" connectable="0" parent="yUhdDb82NWv-7DDXSfU8-15">
          <mxGeometry x="0.0415" y="-1" relative="1" as="geometry">
            <mxPoint as="offset" />
          </mxGeometry>
        </mxCell>
        <mxCell id="yUhdDb82NWv-7DDXSfU8-20" style="edgeStyle=orthogonalEdgeStyle;rounded=0;orthogonalLoop=1;jettySize=auto;html=1;exitX=0.5;exitY=1;exitDx=0;exitDy=0;entryX=0.5;entryY=0;entryDx=0;entryDy=0;endArrow=none;endFill=0;" edge="1" parent="1">
          <mxGeometry relative="1" as="geometry">
            <mxPoint x="272" y="460" as="sourcePoint" />
            <mxPoint x="271" y="520" as="targetPoint" />
            <Array as="points">
              <mxPoint x="272" y="480" />
              <mxPoint x="271" y="480" />
            </Array>
          </mxGeometry>
        </mxCell>
        <mxCell id="yUhdDb82NWv-7DDXSfU8-21" value="MEN1" style="edgeLabel;html=1;align=center;verticalAlign=middle;resizable=0;points=[];" vertex="1" connectable="0" parent="yUhdDb82NWv-7DDXSfU8-20">
          <mxGeometry x="-0.1694" y="-1" relative="1" as="geometry">
            <mxPoint as="offset" />
          </mxGeometry>
        </mxCell>
        <mxCell id="yUhdDb82NWv-7DDXSfU8-23" value="&lt;div&gt;Felhasználó főmenü&lt;/div&gt;" style="rounded=0;whiteSpace=wrap;html=1;" vertex="1" parent="1">
          <mxGeometry x="205" y="400" width="120" height="60" as="geometry" />
        </mxCell>
        <mxCell id="yUhdDb82NWv-7DDXSfU8-24" value="Videó feltöltés" style="rounded=0;whiteSpace=wrap;html=1;" vertex="1" parent="1">
          <mxGeometry x="50" y="520" width="120" height="60" as="geometry" />
        </mxCell>
        <mxCell id="yUhdDb82NWv-7DDXSfU8-25" value="Legaktívabb felhasználók listázása" style="rounded=0;whiteSpace=wrap;html=1;" vertex="1" parent="1">
          <mxGeometry x="204" y="520" width="120" height="60" as="geometry" />
        </mxCell>
        <mxCell id="yUhdDb82NWv-7DDXSfU8-26" value="Videók böngészése" style="rounded=0;whiteSpace=wrap;html=1;" vertex="1" parent="1">
          <mxGeometry x="360" y="520" width="120" height="60" as="geometry" />
        </mxCell>
        <mxCell id="yUhdDb82NWv-7DDXSfU8-27" value="Videók megtekintése" style="rounded=1;whiteSpace=wrap;html=1;" vertex="1" parent="1">
          <mxGeometry x="360" y="640" width="120" height="60" as="geometry" />
        </mxCell>
        <mxCell id="yUhdDb82NWv-7DDXSfU8-28" value="" style="endArrow=none;html=1;rounded=0;" edge="1" parent="1">
          <mxGeometry width="50" height="50" relative="1" as="geometry">
            <mxPoint x="101" y="500" as="sourcePoint" />
            <mxPoint x="271" y="500" as="targetPoint" />
          </mxGeometry>
        </mxCell>
        <mxCell id="yUhdDb82NWv-7DDXSfU8-29" value="" style="endArrow=none;html=1;rounded=0;exitX=0.431;exitY=0.028;exitDx=0;exitDy=0;exitPerimeter=0;" edge="1" parent="1" source="yUhdDb82NWv-7DDXSfU8-24">
          <mxGeometry width="50" height="50" relative="1" as="geometry">
            <mxPoint x="241" y="590" as="sourcePoint" />
            <mxPoint x="101" y="500" as="targetPoint" />
          </mxGeometry>
        </mxCell>
        <mxCell id="yUhdDb82NWv-7DDXSfU8-31" value="" style="endArrow=none;html=1;rounded=0;" edge="1" parent="1">
          <mxGeometry width="50" height="50" relative="1" as="geometry">
            <mxPoint x="421" y="500" as="sourcePoint" />
            <mxPoint x="271" y="500" as="targetPoint" />
          </mxGeometry>
        </mxCell>
        <mxCell id="yUhdDb82NWv-7DDXSfU8-32" value="" style="endArrow=none;html=1;rounded=0;exitX=0.525;exitY=0;exitDx=0;exitDy=0;exitPerimeter=0;" edge="1" parent="1" source="yUhdDb82NWv-7DDXSfU8-26">
          <mxGeometry width="50" height="50" relative="1" as="geometry">
            <mxPoint x="241" y="590" as="sourcePoint" />
            <mxPoint x="421" y="500" as="targetPoint" />
          </mxGeometry>
        </mxCell>
        <mxCell id="yUhdDb82NWv-7DDXSfU8-34" value="" style="endArrow=none;html=1;rounded=0;entryX=0.542;entryY=0.994;entryDx=0;entryDy=0;entryPerimeter=0;exitX=0.539;exitY=0.022;exitDx=0;exitDy=0;exitPerimeter=0;" edge="1" parent="1" source="yUhdDb82NWv-7DDXSfU8-27" target="yUhdDb82NWv-7DDXSfU8-26">
          <mxGeometry width="50" height="50" relative="1" as="geometry">
            <mxPoint x="241" y="590" as="sourcePoint" />
            <mxPoint x="291" y="540" as="targetPoint" />
          </mxGeometry>
        </mxCell>
        <mxCell id="yUhdDb82NWv-7DDXSfU8-35" value="DIAG1" style="edgeLabel;html=1;align=center;verticalAlign=middle;resizable=0;points=[];" vertex="1" connectable="0" parent="yUhdDb82NWv-7DDXSfU8-34">
          <mxGeometry x="0.0481" relative="1" as="geometry">
            <mxPoint x="-5" y="111" as="offset" />
          </mxGeometry>
        </mxCell>
        <mxCell id="yUhdDb82NWv-7DDXSfU8-41" value="MEN1.1" style="edgeLabel;html=1;align=center;verticalAlign=middle;resizable=0;points=[];" vertex="1" connectable="0" parent="yUhdDb82NWv-7DDXSfU8-34">
          <mxGeometry x="0.0188" y="1" relative="1" as="geometry">
            <mxPoint as="offset" />
          </mxGeometry>
        </mxCell>
        <mxCell id="yUhdDb82NWv-7DDXSfU8-36" value="Legaktívabb felhasználók listázása" style="rounded=0;whiteSpace=wrap;html=1;" vertex="1" parent="1">
          <mxGeometry x="530" y="180" width="120" height="60" as="geometry" />
        </mxCell>
        <mxCell id="yUhdDb82NWv-7DDXSfU8-37" value="" style="endArrow=none;html=1;rounded=0;" edge="1" parent="1">
          <mxGeometry width="50" height="50" relative="1" as="geometry">
            <mxPoint x="600" y="160" as="sourcePoint" />
            <mxPoint x="440" y="160" as="targetPoint" />
          </mxGeometry>
        </mxCell>
        <mxCell id="yUhdDb82NWv-7DDXSfU8-38" value="" style="endArrow=none;html=1;rounded=0;exitX=0.583;exitY=0.036;exitDx=0;exitDy=0;exitPerimeter=0;" edge="1" parent="1" source="yUhdDb82NWv-7DDXSfU8-36">
          <mxGeometry width="50" height="50" relative="1" as="geometry">
            <mxPoint x="500" y="360" as="sourcePoint" />
            <mxPoint x="600" y="160" as="targetPoint" />
          </mxGeometry>
        </mxCell>
        <mxCell id="yUhdDb82NWv-7DDXSfU8-42" style="edgeStyle=orthogonalEdgeStyle;rounded=0;orthogonalLoop=1;jettySize=auto;html=1;exitX=0.5;exitY=1;exitDx=0;exitDy=0;entryX=0.5;entryY=0;entryDx=0;entryDy=0;endArrow=none;endFill=0;" edge="1" parent="1">
          <mxGeometry relative="1" as="geometry">
            <mxPoint x="271" y="810" as="sourcePoint" />
            <mxPoint x="270" y="870" as="targetPoint" />
            <Array as="points">
              <mxPoint x="271" y="830" />
              <mxPoint x="270" y="830" />
            </Array>
          </mxGeometry>
        </mxCell>
        <mxCell id="yUhdDb82NWv-7DDXSfU8-43" value="MEN1" style="edgeLabel;html=1;align=center;verticalAlign=middle;resizable=0;points=[];" vertex="1" connectable="0" parent="yUhdDb82NWv-7DDXSfU8-42">
          <mxGeometry x="-0.1694" y="-1" relative="1" as="geometry">
            <mxPoint as="offset" />
          </mxGeometry>
        </mxCell>
        <mxCell id="yUhdDb82NWv-7DDXSfU8-44" value="Admin főmenü" style="rounded=0;whiteSpace=wrap;html=1;" vertex="1" parent="1">
          <mxGeometry x="204" y="750" width="120" height="60" as="geometry" />
        </mxCell>
        <mxCell id="yUhdDb82NWv-7DDXSfU8-46" value="Legaktívabb felhasználók listázása" style="rounded=0;whiteSpace=wrap;html=1;" vertex="1" parent="1">
          <mxGeometry x="205" y="870" width="120" height="60" as="geometry" />
        </mxCell>
        <mxCell id="yUhdDb82NWv-7DDXSfU8-58" style="rounded=0;orthogonalLoop=1;jettySize=auto;html=1;exitX=0.5;exitY=1;exitDx=0;exitDy=0;entryX=0.5;entryY=0;entryDx=0;entryDy=0;endArrow=none;endFill=0;" edge="1" parent="1" source="yUhdDb82NWv-7DDXSfU8-47" target="yUhdDb82NWv-7DDXSfU8-56">
          <mxGeometry relative="1" as="geometry" />
        </mxCell>
        <mxCell id="yUhdDb82NWv-7DDXSfU8-47" value="Videók böngészése" style="rounded=0;whiteSpace=wrap;html=1;" vertex="1" parent="1">
          <mxGeometry x="370" y="870" width="120" height="60" as="geometry" />
        </mxCell>
        <mxCell id="yUhdDb82NWv-7DDXSfU8-48" value="Videók megtekintése" style="rounded=1;whiteSpace=wrap;html=1;" vertex="1" parent="1">
          <mxGeometry x="300" y="990" width="120" height="60" as="geometry" />
        </mxCell>
        <mxCell id="yUhdDb82NWv-7DDXSfU8-51" value="" style="endArrow=none;html=1;rounded=0;" edge="1" parent="1">
          <mxGeometry width="50" height="50" relative="1" as="geometry">
            <mxPoint x="420" y="850" as="sourcePoint" />
            <mxPoint x="270" y="850" as="targetPoint" />
          </mxGeometry>
        </mxCell>
        <mxCell id="yUhdDb82NWv-7DDXSfU8-52" value="" style="endArrow=none;html=1;rounded=0;exitX=0.525;exitY=0;exitDx=0;exitDy=0;exitPerimeter=0;" edge="1" parent="1" source="yUhdDb82NWv-7DDXSfU8-47">
          <mxGeometry width="50" height="50" relative="1" as="geometry">
            <mxPoint x="240" y="940" as="sourcePoint" />
            <mxPoint x="420" y="850" as="targetPoint" />
          </mxGeometry>
        </mxCell>
        <mxCell id="yUhdDb82NWv-7DDXSfU8-53" value="" style="endArrow=none;html=1;rounded=0;entryX=0.542;entryY=0.994;entryDx=0;entryDy=0;entryPerimeter=0;exitX=0.539;exitY=0.022;exitDx=0;exitDy=0;exitPerimeter=0;" edge="1" parent="1" source="yUhdDb82NWv-7DDXSfU8-48" target="yUhdDb82NWv-7DDXSfU8-47">
          <mxGeometry width="50" height="50" relative="1" as="geometry">
            <mxPoint x="240" y="940" as="sourcePoint" />
            <mxPoint x="290" y="890" as="targetPoint" />
          </mxGeometry>
        </mxCell>
        <mxCell id="yUhdDb82NWv-7DDXSfU8-54" value="DIAG1" style="edgeLabel;html=1;align=center;verticalAlign=middle;resizable=0;points=[];" vertex="1" connectable="0" parent="yUhdDb82NWv-7DDXSfU8-53">
          <mxGeometry x="0.0481" relative="1" as="geometry">
            <mxPoint x="-51" y="101" as="offset" />
          </mxGeometry>
        </mxCell>
        <mxCell id="yUhdDb82NWv-7DDXSfU8-55" value="MEN1.1" style="edgeLabel;html=1;align=center;verticalAlign=middle;resizable=0;points=[];" vertex="1" connectable="0" parent="yUhdDb82NWv-7DDXSfU8-53">
          <mxGeometry x="0.0188" y="1" relative="1" as="geometry">
            <mxPoint x="30" as="offset" />
          </mxGeometry>
        </mxCell>
        <mxCell id="yUhdDb82NWv-7DDXSfU8-56" value="Videó törlése" style="rounded=1;whiteSpace=wrap;html=1;" vertex="1" parent="1">
          <mxGeometry x="450" y="990" width="120" height="60" as="geometry" />
        </mxCell>
        <mxCell id="yUhdDb82NWv-7DDXSfU8-59" value="DIAG2" style="edgeLabel;html=1;align=center;verticalAlign=middle;resizable=0;points=[];" vertex="1" connectable="0" parent="1">
          <mxGeometry x="510.0039836410805" y="1059.9964907478416" as="geometry" />
        </mxCell>
      </root>
    </mxGraphModel>
  </diagram>
</mxfile>
